# xmcd
#
# Track frame offsets:
#	192
#	11927
#	24640
#	35340
#	48392
#	60072
#	73317
#	84995
#	101080
#	120577
#	135262
#	149745
#	168945
#	182462
#	200447
#	219522
#
# Disc length: 3111
#
# Revision: 3
# Processed by: cddbd v1.5.1PL0 Copyright (c) Steve Scherf et al.
# Submitted via: EasyCD 2.21 - (C) 1996 Greg Leichner
# Normalized: r1:TDELIM( - ),TSWAP
#
DISCID=dc0c2510
DTITLE=Various Artist - Country Friends - Disk 1
DYEAR=1900
DGENRE=Country
TTITLE0=Patsy Cline - Sweet Dreams
TTITLE1=Don Williams - You're My Best Friend
TTITLE2=Dolly Parton - Love is Like a Butterfly
TTITLE3=Marty Robbins - Devil Woman
TTITLE4=Crystal Gayle - Don't it Make My Brown Eyes Blue
TTITLE5=Charlie Rich - Behind Closed Doors
TTITLE6=Jim Reeves - Welcome to My World
TTITLE7=Billie Jo Spears - Blanket on the Ground
TTITLE8=Kenny Rogers - Coward of the County
TTITLE9=Anne Murray - Could I Have This Dance
TTITLE10=Glen Campbell - Rhinestone Cowboy
TTITLE11=Bobby Gentry - Ode to Billy Joe
TTITLE12=Tammy Wynette - D.I.V.O.R.C.E
TTITLE13=Bobby Goldsboro - Honey
TTITLE14=Juice Newton - Angel of the Morning
TTITLE15=Loreta Lynn - Coal Miner's Daughter
EXTD=
EXTT0=
EXTT1=
EXTT2=
EXTT3=
EXTT4=
EXTT5=
EXTT6=
EXTT7=
EXTT8=
EXTT9=
EXTT10=
EXTT11=
EXTT12=
EXTT13=
EXTT14=
EXTT15=
PLAYORDER=
